# File created by Blade
# Date/Time:  Tue Apr 07 20:53:18 2015
#---------------------------------------------------------
:version 1.10
:name HOM
:units
  mass 1.0
  length 1.000000
  angle deg
:documentation
     Acclaim Skeleton File
:root
   axis xyz
   order TX TY TZ RX RY RZ
   position 0.000000 0.000000 0.000000
   orientation 0 0 0
:bonedata
   begin
      id 1
      name Spine_dum
      direction 0.000000 1.000000 0.000000
      length 4.885285
      axis 0.0 0.0 0.0 xyz
   end
   begin
      id 2
      name LeftUpLeg_dum
      direction 1.000000 0.000000 0.000000
      length 2.672193
      axis 0.0 0.0 0.0 xyz
   end
   begin
      id 3
      name RightUpLeg_dum
      direction -1.000000 0.000000 0.000000
      length 2.672193
      axis 0.0 0.0 0.0 xyz
   end
   begin
      id 4
      name Spine
      direction 0.000000 1.000000 0.000000
      length 0.000000
      axis 0.0 0.0 0.0 xyz
      dof rx ry rz
   end
   begin
      id 5
      name Spine_dum1
      direction 0.000000 1.000000 0.000000
      length 16.494159
      axis 0.0 0.0 0.0 xyz
   end
   begin
      id 6
      name Spine_dum2
      direction 0.000000 1.000000 0.000000
      length 10.663448
      axis 0.0 0.0 0.0 xyz
   end
   begin
      id 7
      name Spine_dum3
      direction 0.000000 1.000000 0.000000
      length 10.663448
      axis 0.0 0.0 0.0 xyz
   end
   begin
      id 8
      name Head
      direction 0.000000 1.000000 0.000000
      length 4.527550
      axis 0.0 0.0 0.0 xyz
      dof rx ry rz
   end
   begin
      id 9
      name LeftShoulder
      direction 1.000000 0.000000 0.000000
      length 7.531907
      axis 0.0 0.0 -90.0 xyz
      dof rx ry rz
   end
   begin
      id 10
      name LeftArm
      direction 1.000000 0.000000 0.000000
      length 10.229199
      axis 0.0 0.0 -90.0 xyz
      dof rx ry rz
   end
   begin
      id 11
      name LeftForeArm
      direction 1.000000 0.000000 0.000000
      length 8.673495
      axis 0.0 0.0 -90.0 xyz
      dof ry rz rx
   end
   begin
      id 12
      name LeftHand
      direction 0.000000 0.000000 0.000000
      length 0.000000
      axis 0.0 0.0 -90.0 xyz
      dof rx ry rz
   end
   begin
      id 13
      name LeftHand_dum1
      direction 0.000000 0.000000 0.000000
      length 0.000000
      axis 0.0 0.0 -90.0 xyz
   end
   begin
      id 14
      name LeftHand_dum2
      direction 1.000000 0.000000 0.000000
      length 3.937000
      axis 0.0 0.0 -90.0 xyz
   end
   begin
      id 15
      name LeftHandThumb1
      direction 0.000000 0.000000 1.000000
      length 3.937000
      axis 0.0 0.0 -90.0 xyz
      dof rx rz ry
   end
   begin
      id 16
      name RightShoulder
      direction -1.000000 0.000000 0.000000
      length 7.531907
      axis 0.0 0.0 90.0 xyz
      dof rx ry rz
   end
   begin
      id 17
      name RightArm
      direction -1.000000 0.000000 0.000000
      length 10.229199
      axis 0.0 0.0 90.0 xyz
      dof rx ry rz
   end
   begin
      id 18
      name RightForeArm
      direction -1.000000 0.000000 0.000000
      length 8.673495
      axis 0.0 0.0 90.0 xyz
      dof ry rz rx
   end
   begin
      id 19
      name RightHand
      direction 0.000000 0.000000 0.000000
      length 0.000000
      axis 0.0 0.0 90.0 xyz
      dof rx ry rz
   end
   begin
      id 20
      name RightHand_dum1
      direction 0.000000 0.000000 0.000000
      length 0.000000
      axis 0.0 0.0 90.0 xyz
   end
   begin
      id 21
      name RightHand_dum2
      direction -1.000000 0.000000 0.000000
      length 3.937000
      axis 0.0 0.0 90.0 xyz
   end
   begin
      id 22
      name RightHandThumb1
      direction 0.000000 0.000000 1.000000
      length 3.937000
      axis 0.0 0.0 90.0 xyz
      dof rx rz ry
   end
   begin
      id 23
      name LeftUpLeg
      direction 0.000000 -1.000000 0.000000
      length 16.263388
      axis 0.0 0.0 0.0 xyz
      dof rx ry rz
   end
   begin
      id 24
      name LeftLeg
      direction 0.000000 -1.000000 0.000000
      length 14.328163
      axis 0.0 0.0 0.0 xyz
      dof rx ry rz
   end
   begin
      id 25
      name LeftFoot
      direction 0.000000 -0.258819 0.965926
      length 5.031290
      axis 15.0 0.0 0.0 xyz
      dof rx ry rz
   end
   begin
      id 26
      name LeftToeBase
      direction 0.000000 0.000000 1.000000
      length 2.952750
      axis 0.0 0.0 0.0 xyz
      dof rx ry rz
   end
   begin
      id 27
      name RightUpLeg
      direction 0.000000 -1.000000 0.000000
      length 16.263388
      axis 0.0 0.0 0.0 xyz
      dof rx ry rz
   end
   begin
      id 28
      name RightLeg
      direction 0.000000 -1.000000 0.000000
      length 14.328163
      axis 0.0 0.0 0.0 xyz
      dof rx ry rz
   end
   begin
      id 29
      name RightFoot
      direction 0.000000 -0.258819 0.965926
      length 5.031290
      axis 15.0 0.0 0.0 xyz
      dof rx ry rz
   end
   begin
      id 30
      name RightToeBase
      direction 0.000000 0.000000 1.000000
      length 2.952750
      axis 0.0 0.0 0.0 xyz
      dof rx ry rz
   end
:hierarchy
   begin
      root Spine_dum LeftUpLeg_dum RightUpLeg_dum
      Spine_dum Spine
      LeftUpLeg_dum LeftUpLeg
      RightUpLeg_dum RightUpLeg
      Spine Spine_dum1 Spine_dum2 Spine_dum3
      Spine_dum1 Head
      Spine_dum2 LeftShoulder
      Spine_dum3 RightShoulder
      LeftShoulder LeftArm
      LeftArm LeftForeArm
      LeftForeArm LeftHand
      LeftHand LeftHand_dum1 LeftHand_dum2
      LeftHand_dum1 LeftHandThumb1
      RightShoulder RightArm
      RightArm RightForeArm
      RightForeArm RightHand
      RightHand RightHand_dum1 RightHand_dum2
      RightHand_dum1 RightHandThumb1
      LeftUpLeg LeftLeg
      LeftLeg LeftFoot
      LeftFoot LeftToeBase
      RightUpLeg RightLeg
      RightLeg RightFoot
      RightFoot RightToeBase
   end

# File created by Blade
# Date/Time:  Tue Apr 07 20:53:11 2015
# Frame Rate: 120.000 fps
#------------------------------------------------------
:FULLY-SPECIFIED
:DEGREES
233
root -22.276316 33.115361 5.141487 -16.264808 -82.245407 16.543262
Spine -1.244613 -7.877791 -5.429099
Head 29.301761 -4.024404 1.793302
LeftShoulder -14.364962 34.049937 30.676119
LeftArm 86.275898 -58.811759 -73.924799
LeftForeArm -5.461151 -0.000000 19.192594
LeftHand 15.389842 -0.000000 17.228389
LeftHandThumb1 -26.253704 0.000000 33.147579
RightShoulder -6.215551 12.184598 -35.037146
RightArm 28.208738 20.182491 42.866300
RightForeArm -1.571181 0.000000 25.112434
RightHand 7.930686 0.000000 2.833658
RightHandThumb1 -24.326973 -0.000000 -32.862282
LeftUpLeg 0.649524 -1.719147 -6.309309
LeftLeg -2.293334 -0.000000 0.000000
LeftFoot -3.593821 10.067425 -16.247572
LeftToeBase -4.770594 -0.000000 0.000000
RightUpLeg -40.494658 -3.950456 0.835206
RightLeg 67.493154 -0.000000 -0.000000
RightFoot 16.009524 -13.487492 -2.061773
RightToeBase -5.838511 -0.000000 0.000000
234
root -22.355857 33.124316 5.136669 -14.372515 -82.023079 14.601617
Spine -1.216142 -7.989222 -5.299370
Head 29.094106 -4.213018 1.904913
LeftShoulder -14.259399 33.730454 31.049800
LeftArm 86.798216 -58.893896 -74.102058
LeftForeArm -5.162727 -0.000000 19.876118
LeftHand 15.435794 -0.000000 17.426806
LeftHandThumb1 -26.253704 0.000000 33.147579
RightShoulder -6.392640 12.404574 -35.348730
RightArm 28.376353 20.475096 42.346812
RightForeArm -2.009967 -0.000000 25.567453
RightHand 8.045045 -0.000000 2.210222
RightHandThumb1 -24.326973 -0.000000 -32.862282
LeftUpLeg 0.755200 -1.770411 -6.116202
LeftLeg -2.159534 -0.000000 0.000000
LeftFoot -3.777906 9.961405 -16.206808
LeftToeBase -4.303130 -0.000000 0.000000
RightUpLeg -40.365047 -3.903134 0.988681
RightLeg 65.101641 -0.000000 -0.000000
RightFoot 15.898196 -13.314319 -1.962832
RightToeBase -7.096467 -0.000000 0.000000
235
root -22.441431 33.132396 5.133154 -12.783637 -81.797072 12.905489
Spine -1.135716 -8.088724 -5.195661
Head 28.889461 -4.391629 2.030788
LeftShoulder -14.157113 33.571798 31.405843
LeftArm 87.552834 -59.033470 -74.523445
LeftForeArm -4.793045 -0.000000 20.578895
LeftHand 15.445264 -0.000000 17.882261
LeftHandThumb1 -26.253704 0.000000 33.147579
RightShoulder -6.541750 12.732481 -35.686285
RightArm 28.419640 20.706052 41.801045
RightForeArm -2.425398 -0.000000 26.036777
RightHand 8.176121 -0.000000 1.627116
RightHandThumb1 -24.326973 -0.000000 -32.862282
LeftUpLeg 0.930983 -1.916123 -5.953064
LeftLeg -1.989886 -0.000000 0.000000
LeftFoot -3.991334 9.950736 -16.035681
LeftToeBase -3.526955 -0.000000 0.000000
RightUpLeg -40.086802 -3.818630 1.109957
RightLeg 62.655565 -0.000000 -0.000000
RightFoot 15.748339 -13.016856 -1.696628
RightToeBase -6.881897 -0.000000 0.000000
236
root -22.530331 33.138878 5.132383 -11.549069 -81.562465 11.538510
Spine -1.035696 -8.158172 -5.125255
Head 28.722240 -4.564871 2.153540
LeftShoulder -14.029711 33.338979 31.753686
LeftArm 88.120626 -59.183043 -74.693870
LeftForeArm -4.512167 -0.000000 21.247880
LeftHand 15.435079 0.000000 18.154471
LeftHandThumb1 -26.253704 0.000000 33.147579
RightShoulder -6.691549 12.985548 -36.014986
RightArm 28.539855 21.020139 41.265572
RightForeArm -2.669078 0.000000 26.394853
RightHand 8.475321 -0.000000 1.540219
RightHandThumb1 -24.326973 -0.000000 -32.862282
LeftUpLeg 1.141248 -2.018274 -5.826278
LeftLeg -1.851636 -0.000000 0.000000
LeftFoot -4.190370 9.977382 -15.851026
LeftToeBase -4.282359 -0.000000 0.000000
RightUpLeg -39.700571 -3.705881 1.167110
RightLeg 60.146749 -0.000000 -0.000000
RightFoot 15.634876 -12.674656 -1.551256
RightToeBase -6.851854 -0.000000 0.000000
237
root -22.621820 33.146165 5.129969 -10.378172 -81.335310 10.225032
Spine -0.923075 -8.231395 -5.051674
Head 28.539911 -4.747780 2.272613
LeftShoulder -13.901034 33.057272 32.132999
LeftArm 88.456925 -59.342328 -74.714893
LeftForeArm -4.243671 -0.000000 21.972787
LeftHand 15.513737 -0.000000 18.335306
LeftHandThumb1 -26.253704 0.000000 33.147579
RightShoulder -6.858494 13.186694 -36.325262
RightArm 28.740786 21.349770 40.748247
RightForeArm -2.912304 -0.000000 26.767120
RightHand 8.674141 -0.000000 1.161397
RightHandThumb1 -24.326973 -0.000000 -32.862282
LeftUpLeg 1.348355 -2.135589 -5.684543
LeftLeg -1.657277 -0.000000 0.000000
LeftFoot -4.442761 9.963975 -15.772581
LeftToeBase -4.338832 -0.000000 0.000000
RightUpLeg -39.195441 -3.569072 1.221847
RightLeg 57.514526 -0.000000 -0.000000
RightFoot 15.612538 -12.324421 -1.297547
RightToeBase -7.144530 -0.000000 0.000000
238
root -22.714050 33.151745 5.132057 -9.568158 -81.106620 9.289701
Spine -0.824091 -8.289246 -5.023834
Head 28.359096 -4.924648 2.410294
LeftShoulder -13.785899 32.786360 32.519388
LeftArm 88.782007 -59.498887 -74.712219
LeftForeArm -3.976400 -0.000000 22.670788
LeftHand 15.542755 0.000000 18.845461
LeftHandThumb1 -26.253704 0.000000 33.147579
RightShoulder -7.074971 13.569700 -36.690008
RightArm 28.851064 21.563274 40.261874
RightForeArm -3.312352 0.000000 27.117341
RightHand 8.829334 -0.000000 0.794465
RightHandThumb1 -24.326973 -0.000000 -32.862282
LeftUpLeg 1.550688 -2.310704 -5.604856
LeftLeg -1.464010 -0.000000 0.000000
LeftFoot -4.582814 9.987212 -15.449979
LeftToeBase -4.741211 -0.000000 0.000000
RightUpLeg -38.618683 -3.400483 1.206755
RightLeg 54.806495 -0.000000 -0.000000
RightFoot 15.555322 -11.867372 -1.180567
RightToeBase -8.236937 -0.000000 0.000000
239
root -22.810565 33.157631 5.132023 -8.808410 -80.897743 8.382697
Spine -0.718012 -8.311425 -5.004918
Head 28.223760 -5.141327 2.580225
LeftShoulder -13.684088 32.581785 32.872986
LeftArm 89.327989 -59.674380 -74.862575
LeftForeArm -3.669426 -0.000000 23.344621
LeftHand 15.570242 -0.000000 19.008352
LeftHandThumb1 -26.253704 0.000000 33.147579
RightShoulder -7.270172 13.612938 -36.937724
RightArm 29.215789 22.005514 39.769968
RightForeArm -3.615585 0.000000 27.426108
RightHand 8.992359 0.000000 0.052600
RightHandThumb1 -24.326973 -0.000000 -32.862282
LeftUpLeg 1.776983 -2.418349 -5.511451
LeftLeg -1.259689 -0.000000 0.000000
LeftFoot -4.682479 10.017828 -15.109517
LeftToeBase -5.268301 -0.000000 0.000000
RightUpLeg -37.929904 -3.176247 1.185455
RightLeg 52.023044 -0.000000 -0.000000
RightFoot 15.512961 -11.341447 -1.177820
RightToeBase -8.634908 -0.000000 0.000000
240
root -22.909539 33.161446 5.132304 -8.128710 -80.700814 7.559843
Spine -0.616691 -8.318797 -4.985375
Head 28.079750 -5.332075 2.759868
LeftShoulder -13.596851 32.381995 33.240758
LeftArm 90.012243 -59.824280 -75.205137
LeftForeArm -3.324397 -0.000000 24.042523
LeftHand 15.473824 -0.000000 19.126235
LeftHandThumb1 -26.253704 0.000000 33.147579
RightShoulder -7.505208 13.872770 -37.264234
RightArm 29.508759 22.341342 39.373262
RightForeArm -4.111960 -0.000000 27.637730
RightHand 9.253401 -0.000000 -1.078944
RightHandThumb1 -24.326973 -0.000000 -32.862282
LeftUpLeg 2.012702 -2.538101 -5.413753
LeftLeg -1.125420 -0.000000 0.000000
LeftFoot -4.772225 9.943371 -14.855851
LeftToeBase -5.689432 -0.000000 0.000000
RightUpLeg -37.164974 -2.932775 1.170635
RightLeg 49.161348 -0.000000 -0.000000
RightFoot 15.472234 -10.837687 -1.264331
RightToeBase -8.794282 -0.000000 0.000000
241
root -23.008597 33.164574 5.133800 -7.757017 -80.515846 7.058150
Spine -0.531407 -8.324192 -5.014380
Head 27.968187 -5.509988 2.928290
LeftShoulder -13.508938 32.105479 33.628821
LeftArm 90.304809 -59.991270 -75.154773
LeftForeArm -3.082881 0.000000 24.715769
LeftHand 15.497131 0.000000 19.104961
LeftHandThumb1 -26.253704 0.000000 33.147579
RightShoulder -7.722495 14.169839 -37.593388
RightArm 29.759030 22.603805 38.920920
RightForeArm -4.490732 -0.000000 27.868474
RightHand 9.207690 0.000000 -1.758766
RightHandThumb1 -24.326973 -0.000000 -32.862282
LeftUpLeg 2.253031 -2.716563 -5.364010
LeftLeg -0.990846 -0.000000 0.000000
LeftFoot -4.905370 9.997131 -14.661209
LeftToeBase -5.888555 -0.000000 0.000000
RightUpLeg -36.341815 -2.612386 1.082948
RightLeg 46.251042 -0.000000 -0.000000
RightFoot 15.563812 -10.322326 -1.491160
RightToeBase -9.406389 -0.000000 0.000000
